<svg width="96" height="96" viewBox="0 0 96 96" fill="none" xmlns="http://www.w3.org/2000/svg">
<g clip-path="url(#clip0_609_2059)">
<g filter="url(#filter0_b_609_2059)">
<rect width="96" height="96" rx="8" fill="#FF1677"/>
</g>
<path d="M25.7526 71.27C24.4206 71.27 23.4666 70.982 22.8906 70.406C22.3146 69.794 22.0266 68.66 22.0266 67.004C22.0266 65.888 22.1346 64.466 22.3506 62.738C22.6026 60.974 22.9986 58.562 23.5386 55.502C24.4746 49.85 25.2126 44.954 25.7526 40.814C26.0766 38.222 26.2386 36.062 26.2386 34.334C26.2386 32.714 25.6446 31.904 24.4566 31.904C23.5206 31.904 22.3866 32.39 21.0546 33.362C19.7586 34.298 18.3186 35.81 16.7346 37.898C16.2306 38.582 15.6726 38.924 15.0606 38.924C14.5566 38.924 14.1066 38.69 13.7106 38.222C13.3506 37.718 13.1706 37.16 13.1706 36.548C13.1706 35.972 13.2786 35.396 13.4946 34.82C13.7466 34.208 14.1426 33.524 14.6826 32.768C16.4106 30.356 18.3366 28.502 20.4606 27.206C22.5846 25.874 24.7086 25.208 26.8326 25.208C28.8126 25.208 30.3246 25.838 31.3686 27.098C32.4486 28.358 32.9886 30.194 32.9886 32.606C32.9886 33.578 32.8986 34.73 32.7186 36.062C32.5386 37.358 32.3766 38.42 32.2326 39.248C32.0886 40.076 31.9806 40.652 31.9086 40.976C33.9606 35.108 36.2646 31.022 38.8206 28.718C41.3766 26.378 44.1846 25.208 47.2446 25.208C49.5846 25.208 51.4206 26.036 52.7526 27.692C54.1206 29.348 54.8046 31.688 54.8046 34.712C54.8046 35.9 54.6426 37.376 54.3186 39.14C56.1186 34.172 58.2246 30.608 60.6366 28.448C63.0486 26.288 65.8206 25.208 68.9526 25.208C71.4726 25.208 73.3986 26.018 74.7306 27.638C76.0986 29.258 76.7826 31.526 76.7826 34.442C76.7826 36.026 76.5486 37.952 76.0806 40.22L72.7866 55.664C72.4266 57.464 72.2466 59.012 72.2466 60.308C72.2466 61.82 72.5886 62.954 73.2726 63.71C73.9926 64.466 74.9826 64.844 76.2426 64.844C77.4306 64.844 78.5826 64.448 79.6986 63.656C80.8506 62.864 82.2006 61.55 83.7486 59.714C84.1806 59.21 84.6666 58.958 85.2066 58.958C85.6746 58.958 86.0346 59.174 86.2866 59.606C86.5746 60.038 86.7186 60.632 86.7186 61.388C86.7186 62.792 86.3766 63.908 85.6926 64.736C83.8206 67.004 81.9666 68.66 80.1306 69.704C78.2946 70.748 76.3686 71.27 74.3526 71.27C71.2926 71.27 68.8986 70.37 67.1706 68.57C65.4426 66.734 64.5786 64.286 64.5786 61.226C64.5786 59.102 65.0106 56.024 65.8746 51.992L68.0346 42.11C68.1066 41.786 68.2326 41.21 68.4126 40.382C68.5926 39.554 68.7366 38.78 68.8446 38.06C68.9526 37.304 69.0066 36.566 69.0066 35.846C69.0066 34.586 68.7546 33.65 68.2506 33.038C67.7826 32.39 67.0986 32.066 66.1986 32.066C64.5066 32.066 62.7246 33.164 60.8526 35.36C59.0166 37.52 57.2526 41.12 55.5606 46.16C53.9046 51.2 52.5546 57.752 51.5106 65.816C51.2586 67.976 50.8086 69.434 50.1606 70.19C49.5486 70.91 48.5406 71.27 47.1366 71.27C45.9126 71.27 45.0126 70.982 44.4366 70.406C43.8966 69.83 43.6266 68.75 43.6266 67.166C43.6266 65.69 43.8246 63.764 44.2206 61.388C44.6166 58.976 45.1206 56.15 45.7326 52.91C47.3886 44.198 48.2166 38.582 48.2166 36.062C48.2166 34.694 47.9466 33.686 47.4066 33.038C46.9026 32.39 46.1286 32.066 45.0846 32.066C43.3206 32.066 41.5026 33.074 39.6306 35.09C37.7586 37.07 35.9226 40.616 34.1226 45.728C32.3586 50.804 30.8826 57.68 29.6946 66.356C29.4426 68.192 29.0646 69.47 28.5606 70.19C28.0926 70.91 27.1566 71.27 25.7526 71.27Z" fill="white"/>
</g>
<defs>
<filter id="filter0_b_609_2059" x="-4" y="-4" width="104" height="104" filterUnits="userSpaceOnUse" color-interpolation-filters="sRGB">
<feFlood flood-opacity="0" result="BackgroundImageFix"/>
<feGaussianBlur in="BackgroundImageFix" stdDeviation="2"/>
<feComposite in2="SourceAlpha" operator="in" result="effect1_backgroundBlur_609_2059"/>
<feBlend mode="normal" in="SourceGraphic" in2="effect1_backgroundBlur_609_2059" result="shape"/>
</filter>
<clipPath id="clip0_609_2059">
<rect width="96" height="96" rx="8" fill="white"/>
</clipPath>
</defs>
</svg>
